# xmcd
#
# Track frame offsets: 
#        150
#        13054
#        25570
#        43709
#        53702
#        63722
#        82181
#        96868
#        113794
#        125798
#        143732
#        159778
#        176239
#
# Disc length: 2527 seconds
#
# Revision: 0
# Processed by: cddbd v1.5.2PL0 Copyright (c) Steve Scherf et al.
# Submitted via: ExactAudioCopy v0.99pb4
#
DISCID=af09dd0d
DTITLE=The Rockingbirds - The Rockingbirds
DYEAR=2009
DGENRE=Country
TTITLE0=A Good Day For You Is A Good Day For Me
TTITLE1=Jonathan, Jonathan [original version]
TTITLE2=Only One Flower [original version]
TTITLE3=Your Good Girl's Gonna Go Bad
TTITLE4=Older Guys
TTITLE5=Where I Belong
TTITLE6=Love Has Gone And Made A Mess Of Me
TTITLE7=Halfway To Comatose [live]
TTITLE8=Drifting [live]
TTITLE9=Gladly
TTITLE10=I'm A Little Less Lonely
TTITLE11=It Won't Be Long
TTITLE12=Harden Up Your Heart
EXTD=
EXTT0=
EXTT1=
EXTT2=
EXTT3=
EXTT4=
EXTT5=
EXTT6=
EXTT7=
EXTT8=
EXTT9=
EXTT10=
EXTT11=
EXTT12=
PLAYORDER=
